<svg width="124" height="27" viewBox="0 0 124 27" fill="none" xmlns="http://www.w3.org/2000/svg">
<rect x="8" width="15" height="3" fill="black"/>
<rect x="6" y="6" width="19" height="3" fill="black"/>
<rect x="4" y="12" width="23" height="3" fill="black"/>
<rect x="2" y="18" width="27" height="3" fill="black"/>
<rect y="24" width="31" height="3" fill="black"/>
<path d="M43.9834 20.5576C41.0391 20.5576 39.167 19.1074 39.0088 16.9189L39 16.7959H41.1973L41.2061 16.8838C41.3115 17.9473 42.4453 18.6504 44.0537 18.6504C45.583 18.6504 46.6553 17.8945 46.6553 16.8047V16.7959C46.6553 15.8818 45.9961 15.3281 44.3613 14.9766L42.999 14.6953C40.4062 14.1504 39.2812 12.9375 39.2812 11.0479V11.0391C39.2812 8.77148 41.2324 7.24219 43.9746 7.24219C46.7871 7.24219 48.5361 8.78027 48.6943 10.8193L48.7031 10.9336H46.5322L46.5146 10.8281C46.3564 9.84375 45.416 9.14062 43.9658 9.14941C42.5596 9.14941 41.5576 9.80859 41.5576 10.8896V10.8984C41.5576 11.7949 42.1992 12.3574 43.7812 12.6914L45.1436 12.9814C47.8154 13.5439 48.9316 14.6162 48.9316 16.5322V16.541C48.9316 19.0107 47.0244 20.5576 43.9834 20.5576Z" fill="black"/>
<path d="M52.377 9.02637C51.6562 9.02637 51.0674 8.45508 51.0674 7.73438C51.0674 7.02246 51.6562 6.44238 52.377 6.44238C53.0889 6.44238 53.6777 7.02246 53.6777 7.73438C53.6777 8.45508 53.0889 9.02637 52.377 9.02637ZM51.2783 20.2412V10.6348H53.4668V20.2412H51.2783Z" fill="black"/>
<path d="M56.1562 20.2412V10.6348H58.3447V12.1289H58.4941C58.9072 11.0566 59.874 10.4502 61.1309 10.4502C62.4316 10.4502 63.3809 11.1182 63.7939 12.1816H63.9434C64.4092 11.1357 65.5166 10.4502 66.8525 10.4502C68.7861 10.4502 69.9463 11.6367 69.9463 13.6318V20.2412H67.7578V14.168C67.7578 12.9199 67.1865 12.2871 66.0176 12.2871C64.875 12.2871 64.1367 13.1396 64.1367 14.2383V20.2412H61.9482V14.0098C61.9482 12.9463 61.2891 12.2871 60.2168 12.2871C59.1357 12.2871 58.3447 13.2012 58.3447 14.3965V20.2412H56.1562Z" fill="black"/>
<path d="M76.3184 20.2852C74.1123 20.2852 73.207 19.5469 73.207 17.6924V12.3311H71.7129V10.6348H73.207V8.2793H75.4307V10.6348H77.4609V12.3311H75.4307V17.1738C75.4307 18.1318 75.8086 18.5361 76.7227 18.5361C77.0303 18.5361 77.1973 18.5273 77.4609 18.501V20.1885C77.1445 20.25 76.7402 20.2852 76.3184 20.2852Z" fill="black"/>
<path d="M83.666 20.4346C80.8096 20.4346 79.0781 18.5186 79.0781 15.46V15.4512C79.0781 12.4277 80.8271 10.4502 83.5605 10.4502C86.2939 10.4502 87.9814 12.3662 87.9814 15.2666V15.9873H81.2666C81.293 17.71 82.2246 18.7119 83.71 18.7119C84.8965 18.7119 85.5732 18.1143 85.7842 17.6748L85.8105 17.6133H87.8936L87.8672 17.6924C87.5596 18.9316 86.2764 20.4346 83.666 20.4346ZM83.5869 12.1641C82.3652 12.1641 81.4512 12.9902 81.2842 14.5195H85.8457C85.6963 12.9463 84.8086 12.1641 83.5869 12.1641Z" fill="black"/>
<path d="M90.1699 20.2412V10.6348H92.3584V12.1113H92.5078C92.833 11.083 93.7119 10.4766 94.9775 10.4766C95.3115 10.4766 95.6543 10.5205 95.8652 10.582V12.542C95.5137 12.4717 95.1533 12.4189 94.7754 12.4189C93.3164 12.4189 92.3584 13.2891 92.3584 14.6602V20.2412H90.1699Z" fill="black"/>
<path d="M100.154 20.3994C98.3262 20.3994 96.999 19.2744 96.999 17.5254V17.5078C96.999 15.7939 98.3086 14.792 100.646 14.6514L103.116 14.502V13.6758C103.116 12.7178 102.492 12.1904 101.314 12.1904C100.312 12.1904 99.6621 12.5508 99.4424 13.1836L99.4336 13.2188H97.3682L97.377 13.1396C97.5879 11.5225 99.1348 10.4502 101.42 10.4502C103.89 10.4502 105.278 11.6455 105.278 13.6758V20.2412H103.116V18.9229H102.967C102.439 19.8545 101.42 20.3994 100.154 20.3994ZM99.1611 17.4199C99.1611 18.2373 99.8555 18.7207 100.822 18.7207C102.141 18.7207 103.116 17.8594 103.116 16.7168V15.9434L100.954 16.084C99.7324 16.1631 99.1611 16.6113 99.1611 17.4023V17.4199Z" fill="black"/>
<path d="M112.028 20.4346C109.137 20.4346 107.432 18.5625 107.432 15.4248V15.4072C107.432 12.3047 109.128 10.4502 112.02 10.4502C114.489 10.4502 115.966 11.8213 116.212 13.8076V13.8428H114.146L114.138 13.8164C113.936 12.8848 113.224 12.2168 112.028 12.2168C110.534 12.2168 109.655 13.3945 109.655 15.4072V15.4248C109.655 17.4639 110.543 18.6592 112.028 18.6592C113.162 18.6592 113.856 18.1406 114.129 17.1299L114.146 17.0947L116.212 17.0859L116.194 17.1562C115.878 19.125 114.463 20.4346 112.028 20.4346Z" fill="black"/>
<path d="M122.197 20.2852C119.991 20.2852 119.086 19.5469 119.086 17.6924V12.3311H117.592V10.6348H119.086V8.2793H121.31V10.6348H123.34V12.3311H121.31V17.1738C121.31 18.1318 121.688 18.5361 122.602 18.5361C122.909 18.5361 123.076 18.5273 123.34 18.501V20.1885C123.023 20.25 122.619 20.2852 122.197 20.2852Z" fill="black"/>
</svg>
