<svg width="24" height="24" viewBox="0 0 24 24" fill="none" xmlns="http://www.w3.org/2000/svg">
<path d="M16.4971 10.5343L16.5 10.5096L16.5028 10.5338C16.644 11.7427 17.0207 12.6768 17.669 13.337C18.3184 13.9984 19.2406 14.3853 20.4723 14.4985L20.489 14.5L20.4729 14.5014C19.2596 14.6102 18.3212 14.9966 17.6589 15.6589C16.9966 16.3212 16.6102 17.2596 16.5014 18.4729L16.5 18.489L16.4985 18.4723C16.3853 17.2406 15.9984 16.3184 15.337 15.669C14.6768 15.0207 13.7427 14.644 12.5338 14.5028L12.5096 14.5L12.5343 14.4971C13.7619 14.3512 14.6796 13.9742 15.3269 13.3269C15.9742 12.6796 16.3512 11.7619 16.4971 10.5343Z" fill="black" stroke="black"/>
<rect x="3" y="5" width="16" height="2" fill="black"/>
<rect x="3" y="11" width="7" height="2" fill="black"/>
<rect x="3" y="17" width="5" height="2" fill="black"/>
</svg>
