<svg width="24" height="24" viewBox="0 0 24 24" fill="none" xmlns="http://www.w3.org/2000/svg">
<path d="M15.0483 18.399L14.0812 18.1446L14.0812 18.1446L15.0483 18.399ZM13.3988 20.3585L13.0647 21.301L14.9497 21.9693L15.2839 21.0268L13.3988 20.3585ZM18.4626 16.8758L18.2801 17.8591L20.2466 18.2239L20.429 17.2407L18.4626 16.8758ZM2.54971 14.7886L2.31381 15.7604L4.25736 16.2322L4.49326 15.2604L2.54971 14.7886ZM13.0011 11V10H11.0011V11H13.0011ZM10.7275 18.8992L9.77865 18.5834L9.77865 18.5834L10.7275 18.8992ZM9.09546 20.3887L8.70393 21.3089L10.5443 22.092L10.9358 21.1718L9.09546 20.3887ZM5.4797 18.6645L5.09619 19.5881L6.94326 20.3551L7.32677 19.4316L5.4797 18.6645ZM12.0007 4C15.8667 4 19.0007 7.13401 19.0007 11H21.0007C21.0007 6.02944 16.9712 2 12.0007 2V4ZM9.00067 11C9.00067 9.34315 10.3438 8 12.0007 8V6C9.23925 6 7.00067 8.23858 7.00067 11H9.00067ZM12.0007 8C13.6575 8 15.0007 9.34315 15.0007 11H17.0007C17.0007 8.23858 14.7621 6 12.0007 6V8ZM14.0812 18.1446C13.8836 18.8954 13.6557 19.6338 13.3988 20.3585L15.2839 21.0268C15.5593 20.2499 15.8036 19.4583 16.0153 18.6535L14.0812 18.1446ZM19.0007 11C19.0007 13.0079 18.8159 14.9718 18.4626 16.8758L20.429 17.2407C20.8045 15.217 21.0007 13.1309 21.0007 11H19.0007ZM3.00067 11C3.00067 12.3065 2.8443 13.575 2.54971 14.7886L4.49326 15.2604C4.82506 13.8935 5.00067 12.4666 5.00067 11H3.00067ZM8.93814 4.70346C9.86201 4.25315 10.9004 4 12.0007 4V2C10.5901 2 9.25272 2.32521 8.06186 2.90565L8.93814 4.70346ZM5.00067 11C5.00067 9.13543 5.72836 7.44297 6.91724 6.18762L5.4651 4.81238C3.93848 6.42436 3.00067 8.60374 3.00067 11H5.00067ZM14.586 15.8288C14.4498 16.6124 14.2811 17.3849 14.0812 18.1446L16.0153 18.6535C16.2296 17.839 16.4105 17.0111 16.5565 16.1712L14.586 15.8288ZM15.0007 11C15.0007 11.9788 14.9505 12.9455 14.8526 13.8978L16.8421 14.1022C16.947 13.0821 17.0007 12.0472 17.0007 11H15.0007ZM11.0011 11C11.0011 13.6517 10.5714 16.2011 9.77865 18.5834L11.6763 19.2149C12.536 16.6315 13.0011 13.8691 13.0011 11H11.0011ZM9.77865 18.5834C9.57463 19.1965 9.34653 19.7987 9.09546 20.3887L10.9358 21.1718C11.2079 20.5323 11.4552 19.8796 11.6763 19.2149L9.77865 18.5834ZM7.00067 11C7.00067 12.7157 6.78487 14.3795 6.37944 15.9664L8.3172 16.4615C8.76362 14.7141 9.00067 12.884 9.00067 11H7.00067ZM5.96239 17.3782C5.8159 17.8139 5.65481 18.2428 5.4797 18.6645L7.32677 19.4316C7.51952 18.9674 7.69684 18.4952 7.8581 18.0156L5.96239 17.3782Z" fill="black"/>
</svg>
