<svg width="65" height="64" viewBox="0 0 65 64" fill="none" xmlns="http://www.w3.org/2000/svg">
<g clip-path="url(#clip0_2_43)">
<path d="M14.8772 0.106323H49.3895C57.4987 0.106323 64.027 6.63463 64.027 14.7438V49.2562C64.027 57.3654 57.4987 63.8937 49.3895 63.8937H14.8772C6.76796 63.8937 0.239624 57.3654 0.239624 49.2562V14.7438C0.239624 6.63463 6.76796 0.106323 14.8772 0.106323Z" fill="#28A8EA"/>
<path d="M14.2152 18.2458C13.8791 18.2458 13.5625 18.3038 13.2628 18.423L19.2651 24.6024L25.3337 30.8925L25.4445 31.0254L25.6217 31.2026L25.7988 31.3798L26.1532 31.7563L31.3581 37.0941C31.4447 37.1479 31.6959 37.3806 31.8921 37.4786C32.1448 37.605 32.4187 37.7214 32.7011 37.7315C33.0058 37.7424 33.3172 37.6551 33.5914 37.5217C33.7968 37.4218 33.8881 37.2787 34.1266 37.0941L40.151 30.8704L46.2418 24.6024L52.1111 18.5559C51.7343 18.3517 51.317 18.2458 50.8708 18.2458H14.2152ZM12.3769 18.9988C11.7368 19.6053 11.3359 20.5171 11.3359 21.5459V41.8338C11.3359 42.6669 11.6035 43.4236 12.0447 44.0044L12.8863 43.207L19.1543 37.1162L24.7136 31.7342L24.6028 31.6013L18.512 25.3333L12.4212 19.0431L12.3769 18.9988ZM52.9085 19.1982L46.9727 25.3333L40.904 31.6013L40.7933 31.712L46.574 37.3156L52.842 43.4064L53.2186 43.7607C53.556 43.2192 53.7501 42.5522 53.7501 41.8338V21.5459C53.7501 20.6286 53.4322 19.7967 52.9085 19.1982ZM25.4223 32.4651L19.8852 37.8471L13.5951 43.9379L12.7977 44.7131C13.2181 44.9838 13.6965 45.1561 14.2152 45.1561H50.8708C51.4945 45.1561 52.0602 44.9162 52.532 44.5359L52.1333 44.1373L45.8431 38.0465L40.0624 32.4651L34.8575 37.825C34.5758 38.0117 34.3876 38.2189 34.1125 38.3461C33.6698 38.5508 33.1847 38.724 32.697 38.7165C32.208 38.709 31.7285 38.5176 31.2897 38.3018C31.0694 38.1934 30.952 38.0857 30.6936 37.8693L25.4223 32.4651Z" fill="white"/>
</g>
<defs>
<clipPath id="clip0_2_43">
<rect width="64" height="64" fill="white" transform="translate(0.133301)"/>
</clipPath>
</defs>
</svg>
