<svg width="24" height="24" viewBox="0 0 24 24" fill="none" xmlns="http://www.w3.org/2000/svg">
<path fill-rule="evenodd" clip-rule="evenodd" d="M12 4C16.0957 3.99997 20.0655 6.43919 22.628 11.0551C22.9531 11.6406 22.9531 12.3593 22.628 12.9448C20.0655 17.5607 16.0957 20 12 20C7.90435 20 3.93452 17.5608 1.37197 12.9449C1.04691 12.3594 1.04691 11.6407 1.37197 11.0552C3.93451 6.4393 7.90434 4.00003 12 4ZM8.5 12C8.5 10.067 10.067 8.5 12 8.5C13.933 8.5 15.5 10.067 15.5 12C15.5 13.933 13.933 15.5 12 15.5C10.067 15.5 8.5 13.933 8.5 12Z" fill="white"/>
</svg>
