<svg width="86" height="64" viewBox="0 0 86 64" fill="none" xmlns="http://www.w3.org/2000/svg">
<g clip-path="url(#clip0_1_6)">
<path d="M5.81818 64H19.3939V31.0303L0 16.4849V58.1818C0 61.4012 2.60848 64 5.81818 64Z" fill="#4285F4"/>
<path d="M65.9394 64H79.5152C82.7345 64 85.3333 61.3915 85.3333 58.1818V16.4849L65.9394 31.0303" fill="#34A853"/>
<path d="M65.9394 5.81821V31.0303L85.3333 16.4849V8.7273C85.3333 1.53215 77.12 -2.56967 71.3697 1.74548" fill="#FBBC04"/>
<path d="M19.3939 31.0303V5.81818L42.6666 23.2727L65.9394 5.81818V31.0303L42.6666 48.4848" fill="#EA4335"/>
<path d="M0 8.7273V16.4849L19.3939 31.0303V5.81821L13.9636 1.74548C8.20364 -2.56967 0 1.53215 0 8.7273Z" fill="#C5221F"/>
</g>
<defs>
<clipPath id="clip0_1_6">
<rect width="85.3333" height="64" fill="white"/>
</clipPath>
</defs>
</svg>
