<svg width="24" height="24" viewBox="0 0 24 24" fill="none" xmlns="http://www.w3.org/2000/svg">
<path fill-rule="evenodd" clip-rule="evenodd" d="M11.6808 2.42654C11.9772 2.00312 12.5474 1.87533 12.9961 2.13176L12.9976 2.13261L12.9997 2.13382C13.4074 2.369 13.7974 2.63729 14.1788 2.91234C14.8686 3.40991 15.7899 4.1432 16.7144 5.08721C18.5437 6.95505 20.5 9.76792 20.5 13.2952C20.5 18.0771 16.7197 22 12 22C7.28035 22 3.5 18.0771 3.5 13.2952C3.5 11.0051 4.60864 7.97716 6.79289 5.7929C7.18342 5.40238 7.81658 5.40238 8.20711 5.7929L8.86429 6.45008L11.6808 2.42654ZM12 20C13.4497 20 14.625 18.6585 14.625 17.0037C14.625 15.0194 12.9004 13.6214 12.2469 13.163C12.0974 13.0581 11.9026 13.0581 11.7531 13.163C11.0996 13.6214 9.375 15.0194 9.375 17.0037C9.375 18.6585 10.5503 20 12 20Z" fill="black"/>
</svg>
