<svg width="65" height="64" viewBox="0 0 65 64" fill="none" xmlns="http://www.w3.org/2000/svg">
<g clip-path="url(#clip0_1_2)">
<path d="M32.1498 0.484863C18.99 0.484863 15.1413 0.498439 14.3932 0.5605C11.6926 0.784984 10.0121 1.2102 8.18129 2.12171C6.77038 2.82232 5.65765 3.63444 4.55947 4.77286C2.55947 6.84898 1.34735 9.40317 0.908563 12.4393C0.69523 13.9132 0.633169 14.2138 0.620563 21.7426C0.615715 24.2521 0.620563 27.5549 0.620563 31.985C0.620563 45.1341 0.635109 48.9789 0.698139 49.7256C0.916321 52.3535 1.32844 54.0068 2.20117 55.8153C3.86905 59.2771 7.0545 61.8759 10.8072 62.8456C12.1066 63.1801 13.5418 63.3644 15.3842 63.4517C16.1648 63.4856 24.1212 63.5098 32.0824 63.5098C40.0436 63.5098 48.0048 63.5001 48.766 63.4613C50.8994 63.361 52.1381 63.1947 53.5078 62.8407C57.2848 61.8662 60.4121 59.3062 62.1139 55.7959C62.9697 54.031 63.4036 52.3147 63.6 49.824C63.6426 49.281 63.6606 40.623 63.6606 31.9767C63.6606 23.329 63.6412 14.687 63.5985 14.144C63.3997 11.6131 62.9658 9.91129 62.0824 8.1125C61.3575 6.64001 60.5527 5.54038 59.3842 4.41601C57.2989 2.42426 54.7486 1.21214 51.7095 0.773833C50.237 0.560984 49.9437 0.497954 42.4092 0.484863H32.1498Z" fill="url(#paint0_radial_1_2)"/>
<path d="M32.1498 0.484863C18.99 0.484863 15.1413 0.498439 14.3932 0.5605C11.6926 0.784984 10.0121 1.2102 8.18129 2.12171C6.77038 2.82232 5.65765 3.63444 4.55947 4.77286C2.55947 6.84898 1.34735 9.40317 0.908563 12.4393C0.69523 13.9132 0.633169 14.2138 0.620563 21.7426C0.615715 24.2521 0.620563 27.5549 0.620563 31.985C0.620563 45.1341 0.635109 48.9789 0.698139 49.7256C0.916321 52.3535 1.32844 54.0068 2.20117 55.8153C3.86905 59.2771 7.0545 61.8759 10.8072 62.8456C12.1066 63.1801 13.5418 63.3644 15.3842 63.4517C16.1648 63.4856 24.1212 63.5098 32.0824 63.5098C40.0436 63.5098 48.0048 63.5001 48.766 63.4613C50.8994 63.361 52.1381 63.1947 53.5078 62.8407C57.2848 61.8662 60.4121 59.3062 62.1139 55.7959C62.9697 54.031 63.4036 52.3147 63.6 49.824C63.6426 49.281 63.6606 40.623 63.6606 31.9767C63.6606 23.329 63.6412 14.687 63.5985 14.144C63.3997 11.6131 62.9658 9.91129 62.0824 8.1125C61.3575 6.64001 60.5527 5.54038 59.3842 4.41601C57.2989 2.42426 54.7486 1.21214 51.7095 0.773833C50.237 0.560984 49.9437 0.497954 42.4092 0.484863H32.1498Z" fill="url(#paint1_radial_1_2)"/>
<path d="M32.1353 8.72729C25.8148 8.72729 25.0216 8.75493 22.5391 8.8679C20.0616 8.98136 18.3704 9.3736 16.8907 9.94911C15.36 10.5435 14.0616 11.3387 12.768 12.6327C11.4734 13.9263 10.6783 15.2247 10.0819 16.7549C9.50496 18.2352 9.11223 19.9268 9.00072 22.4034C8.88969 24.8858 8.8606 25.6795 8.8606 32C8.8606 38.3205 8.88872 39.1113 9.0012 41.5937C9.11514 44.0713 9.50738 45.7624 10.0824 47.2422C10.6773 48.7729 11.4725 50.0713 12.7665 51.3649C14.0596 52.6594 15.3581 53.4565 16.8877 54.0509C18.3685 54.6264 20.0601 55.0187 22.5372 55.1321C25.0196 55.2451 25.8124 55.2728 32.1324 55.2728C38.4533 55.2728 39.2441 55.2451 41.7265 55.1321C44.2041 55.0187 45.8972 54.6264 47.3779 54.0509C48.9081 53.4565 50.2046 52.6594 51.4977 51.3649C52.7922 50.0713 53.5874 48.7729 54.1837 47.2427C54.7559 45.7624 55.1486 44.0708 55.265 41.5942C55.3765 39.1118 55.4056 38.3205 55.4056 32C55.4056 25.6795 55.3765 24.8863 55.265 22.4039C55.1486 19.9263 54.7559 18.2352 54.1837 16.7554C53.5874 15.2247 52.7922 13.9263 51.4977 12.6327C50.2031 11.3382 48.9086 10.5431 47.3765 9.94911C45.8928 9.3736 44.2007 8.98136 41.7231 8.8679C39.2407 8.75493 38.4504 8.72729 32.128 8.72729H32.1353ZM30.0475 12.9212C30.6671 12.9203 31.3585 12.9212 32.1353 12.9212C38.3491 12.9212 39.0856 12.9435 41.5394 13.0551C43.8085 13.1588 45.04 13.538 45.8604 13.8565C46.9464 14.2783 47.7207 14.7826 48.5348 15.5971C49.3493 16.4117 49.8536 17.1874 50.2764 18.2735C50.5949 19.0929 50.9745 20.3244 51.0778 22.5935C51.1893 25.0468 51.2136 25.7838 51.2136 31.9947C51.2136 38.2056 51.1893 38.9426 51.0778 41.3959C50.9741 43.665 50.5949 44.8965 50.2764 45.7159C49.8545 46.802 49.3493 47.5753 48.5348 48.3894C47.7202 49.2039 46.9469 49.7081 45.8604 50.13C45.041 50.45 43.8085 50.8281 41.5394 50.9319C39.0861 51.0434 38.3491 51.0677 32.1353 51.0677C25.921 51.0677 25.1845 51.0434 22.7311 50.9319C20.4621 50.8272 19.2305 50.448 18.4097 50.1295C17.3236 49.7077 16.5479 49.2034 15.7333 48.3889C14.9188 47.5743 14.4145 46.8005 13.9917 45.714C13.6732 44.8946 13.2936 43.6631 13.1903 41.394C13.0788 38.9406 13.0565 38.2037 13.0565 31.9889C13.0565 25.7741 13.0788 25.041 13.1903 22.5877C13.2941 20.3186 13.6732 19.0871 13.9917 18.2667C14.4136 17.1806 14.9188 16.4049 15.7333 15.5903C16.5479 14.7758 17.3236 14.2715 18.4097 13.8487C19.2301 13.5287 20.4621 13.1506 22.7311 13.0463C24.8781 12.9494 25.7101 12.9203 30.0475 12.9154V12.9212ZM44.5581 16.7855C43.0162 16.7855 41.7653 18.0349 41.7653 19.5772C41.7653 21.1191 43.0162 22.37 44.5581 22.37C46.0999 22.37 47.3508 21.1191 47.3508 19.5772C47.3508 18.0354 46.0999 16.7845 44.5581 16.7845V16.7855ZM32.1353 20.0485C25.535 20.0485 20.1837 25.3998 20.1837 32C20.1837 38.6003 25.535 43.9491 32.1353 43.9491C38.7355 43.9491 44.0848 38.6003 44.0848 32C44.0848 25.3998 38.7355 20.0485 32.1353 20.0485ZM32.1353 24.2424C36.4194 24.2424 39.8928 27.7154 39.8928 32C39.8928 36.2841 36.4194 39.7576 32.1353 39.7576C27.8507 39.7576 24.3777 36.2841 24.3777 32C24.3777 27.7154 27.8507 24.2424 32.1353 24.2424Z" fill="white"/>
</g>
<defs>
<radialGradient id="paint0_radial_1_2" cx="0" cy="0" r="1" gradientUnits="userSpaceOnUse" gradientTransform="translate(17.3641 68.3641) rotate(-90) scale(62.4624 58.1108)">
<stop stop-color="#FFDD55"/>
<stop offset="0.1" stop-color="#FFDD55"/>
<stop offset="0.5" stop-color="#FF543E"/>
<stop offset="1" stop-color="#C837AB"/>
</radialGradient>
<radialGradient id="paint1_radial_1_2" cx="0" cy="0" r="1" gradientUnits="userSpaceOnUse" gradientTransform="translate(-9.94149 5.02508) rotate(78.6776) scale(27.9212 115.122)">
<stop stop-color="#3771C8"/>
<stop offset="0.128" stop-color="#3771C8"/>
<stop offset="1" stop-color="#6600FF" stop-opacity="0"/>
</radialGradient>
<clipPath id="clip0_1_2">
<rect width="64.0019" height="64" fill="white" transform="translate(0.133301)"/>
</clipPath>
</defs>
</svg>
