<svg width="48" height="48" viewBox="0 0 48 48" fill="none" xmlns="http://www.w3.org/2000/svg">
<circle cx="24" cy="24" r="24" fill="white"/>
<circle cx="24" cy="24" r="24" fill="url(#paint0_linear_41_133)"/>
<path fill-rule="evenodd" clip-rule="evenodd" d="M24.5 42C17.5 42.5 6.98438 35.9998 6.98438 23.8747C6.98438 23.5818 6.98962 23.2901 7.00003 22.9997C7.06253 27.6872 9.30253 30.651 11 31.4997C12.6975 32.3485 15 31.9797 16.5 30.9997C18 30.0197 20.0875 28.4872 19.6875 24.1872C19.2875 19.8872 16.1875 19.3956 14.6875 19.6872C14.8959 18.8539 15.8125 17.1872 17.3125 17.1872C17.25 16.8122 17.8525 15.2738 18.393 14.5736C19.3661 13.313 20.8587 12.6343 23.0151 12.738C26.511 12.9062 28.6711 15.7275 29.9165 19.0486L29.9352 19.0983C31.1793 22.4164 32.9259 27.0742 37 26.9998C37.0185 26.9994 37.0377 26.9991 37.0574 26.9988C38.103 26.981 40.8116 26.9349 41 23.4998C41.5 33.9998 32.5 42 24.5 42ZM21.6446 17.1072C22.2206 17.1072 22.6875 16.6402 22.6875 16.0642C22.6875 15.4882 22.2206 15.0213 21.6446 15.0213C21.0686 15.0213 20.6016 15.4882 20.6016 16.0642C20.6016 16.6402 21.0686 17.1072 21.6446 17.1072Z" fill="url(#paint1_linear_41_133)"/>
<path d="M24 41C17.5 41 6.98438 37.1298 6.98438 23.875C6.98438 23.5821 6.98962 23.2904 7.00003 23C7.06253 27.6875 9.30253 30.6512 11 31.5C12.6975 32.3487 15 31.98 16.5 31C18 30.02 20.0875 28.4875 19.6875 24.1875C19.2875 19.8875 16.1875 19.3958 14.6875 19.6875C16.5209 18.6667 20.85 18.05 23.5 23.75C23.75 23.5 25.05 22.35 25 21.5C29 25 30.5 33.5 26.4299 40.8742C25.5905 40.962 24.7741 41 24 41Z" fill="url(#paint2_linear_41_133)"/>
<circle cx="24" cy="24" r="20.5" stroke="white" stroke-width="7"/>
<circle cx="24" cy="24" r="22" stroke="#1876CC" stroke-width="4"/>
<g clip-path="url(#clip0_41_133)">
<path d="M7 23.8437C7 35.9688 17.5156 41.4688 24.5156 40.9688C32.5156 40.9688 41.5156 33.9688 41.0156 23.4688C40.8237 26.9688 38.0155 26.9505 37.0156 26.9688C32.9415 27.0432 31.195 22.3854 29.9508 19.0673L29.9322 19.0176C28.6868 15.6965 26.5266 12.8752 23.0307 12.707C20.8743 12.6033 19.3817 13.282 18.4087 14.5426C17.8681 15.2428 17.2656 16.7812 17.3281 17.1562C15.8281 17.1562 14.9115 18.8229 14.7031 19.6562C16.2031 19.3646 19.3031 19.8562 19.7031 24.1562C20.1031 28.4562 18.0157 29.9887 16.5157 30.9687C15.0157 31.9487 12.7131 32.3175 11.0157 31.4687C9.31816 30.62 7.07815 27.6562 7.01565 22.9687C7.00525 23.2591 7 23.5508 7 23.8437Z" fill="url(#paint3_radial_41_133)"/>
</g>
<defs>
<linearGradient id="paint0_linear_41_133" x1="24" y1="0" x2="24" y2="48" gradientUnits="userSpaceOnUse">
<stop stop-color="#1876CC"/>
<stop offset="1" stop-color="#1876CC"/>
</linearGradient>
<linearGradient id="paint1_linear_41_133" x1="24.0022" y1="12.7277" x2="24.0022" y2="42.0268" gradientUnits="userSpaceOnUse">
<stop stop-color="#FFFFFE"/>
<stop offset="1" stop-color="#E5F3FF"/>
</linearGradient>
<linearGradient id="paint2_linear_41_133" x1="17" y1="19" x2="17.4922" y2="41" gradientUnits="userSpaceOnUse">
<stop stop-color="#1876CC" stop-opacity="0.5"/>
<stop offset="0.671875" stop-color="#1876CC" stop-opacity="0"/>
</linearGradient>
<radialGradient id="paint3_radial_41_133" cx="0" cy="0" r="1" gradientUnits="userSpaceOnUse" gradientTransform="translate(24 24) rotate(90) scale(24 24.0071)">
<stop offset="0.255208" stop-color="white" stop-opacity="0"/>
<stop offset="0.708333" stop-color="white"/>
</radialGradient>
<clipPath id="clip0_41_133">
<rect width="34" height="18" fill="white" transform="translate(7 23)"/>
</clipPath>
</defs>
</svg>
