<svg width="65" height="64" viewBox="0 0 65 64" fill="none" xmlns="http://www.w3.org/2000/svg">
<g clip-path="url(#clip0_3_144)">
<path d="M32.6149 0C14.5909 0 0.614929 13.208 0.614929 31.04C0.614929 40.368 4.43893 48.432 10.6629 54C11.1829 54.464 11.5029 55.12 11.5189 55.824L11.6949 61.52C11.7077 61.9391 11.8233 62.3486 12.0315 62.7126C12.2396 63.0766 12.534 63.3839 12.8887 63.6075C13.2434 63.831 13.6476 63.9641 14.0658 63.9948C14.484 64.0256 14.9033 63.9532 15.2869 63.784L21.6389 60.984C22.1749 60.744 22.7829 60.704 23.3509 60.856C26.2709 61.656 29.3749 62.088 32.6149 62.088C50.6389 62.088 64.6149 48.88 64.6149 31.048C64.6149 13.216 50.6389 0 32.6149 0Z" fill="#5E5E5E"/>
<path d="M13.3989 40.12L22.7989 25.208C23.1525 24.6466 23.6187 24.1646 24.168 23.7924C24.7173 23.4202 25.3378 23.166 25.9903 23.0457C26.6428 22.9254 27.3132 22.9417 27.9591 23.0936C28.605 23.2455 29.2124 23.5296 29.7429 23.928L37.2229 29.536C37.5569 29.786 37.9631 29.9205 38.3803 29.919C38.7974 29.9176 39.2027 29.7803 39.5349 29.528L49.6309 21.864C50.9749 20.84 52.7349 22.456 51.8389 23.888L42.4309 38.792C42.0773 39.3535 41.6111 39.8355 41.0618 40.2076C40.5126 40.5798 39.8921 40.8341 39.2395 40.9544C38.587 41.0746 37.9167 41.0583 37.2708 40.9065C36.6249 40.7546 36.0175 40.4705 35.4869 40.072L28.0069 34.464C27.673 34.214 27.2667 34.0796 26.8496 34.081C26.4324 34.0825 26.0271 34.2197 25.6949 34.472L15.5989 42.136C14.2549 43.16 12.4949 41.552 13.3989 40.12Z" fill="white"/>
</g>
<defs>
<clipPath id="clip0_3_144">
<rect width="64" height="64" fill="white" transform="translate(0.614929)"/>
</clipPath>
</defs>
</svg>
