<svg width="24" height="24" viewBox="0 0 24 24" fill="none" xmlns="http://www.w3.org/2000/svg">
  <path fill-rule="evenodd" clip-rule="evenodd" d="M12 2C6.477 2 2 6.477 2 12C2 17.523 6.477 22 12 22C17.523 22 22 17.523 22 12C22 6.477 17.523 2 12 2ZM11 20C10.181 18.845 9.542 17.518 9.12 16H5.824C6.974 17.729 8.857 19 11 20ZM14.88 16C14.458 17.518 13.819 18.845 13 20C15.143 19 17.026 17.729 18.176 16H14.88ZM18.832 14H14.22C14.407 13.347 14.5 12.684 14.5 12C14.5 11.316 14.407 10.653 14.22 10H18.832C18.944 10.646 19 11.313 19 12C19 12.687 18.944 13.354 18.832 14ZM12 9.5C12.483 9.5 12.938 9.579 13.36 9.725C13.086 10.457 12.754 11.146 12.368 11.786C12.139 12.183 11.777 12.5 11.355 12.658C10.888 12.828 10.388 12.861 9.922 12.76C10.103 12.509 10.311 12.278 10.547 12.078C11.066 11.626 11.671 10.87 12.368 9.725ZM9.78 10H5.168C5.056 10.646 5 11.313 5 12C5 12.687 5.056 13.354 5.168 14H9.78C9.593 13.347 9.5 12.684 9.5 12C9.5 11.316 9.593 10.653 9.78 10ZM5.824 8H9.12C9.542 6.482 10.181 5.155 11 4C8.857 5 6.974 6.271 5.824 8ZM14.88 8H18.176C17.026 6.271 15.143 5 13 4C13.819 5.155 14.458 6.482 14.88 8Z" fill="white"/>
</svg>