<svg width="70" height="64" viewBox="0 0 70 64" fill="none" xmlns="http://www.w3.org/2000/svg">
<g clip-path="url(#clip0_1_12)">
<path d="M69.1332 33.5999C69.137 33.062 68.859 32.5613 68.4004 32.28H68.3924L68.3636 32.2639L44.5236 18.152C44.4207 18.0824 44.3138 18.0188 44.2036 17.9616C43.2831 17.4867 42.1897 17.4867 41.2692 17.9616C41.159 18.0189 41.0521 18.0824 40.9492 18.152L17.1093 32.2639L17.0805 32.28C16.3519 32.733 16.1285 33.6911 16.5816 34.4197C16.7151 34.6344 16.899 34.8132 17.1173 34.9407L40.9573 49.0527C41.0606 49.1217 41.1674 49.1853 41.2773 49.2432C42.1978 49.718 43.2912 49.718 44.2117 49.2432C44.3216 49.1853 44.4284 49.1217 44.5317 49.0527L68.3717 34.9407C68.8479 34.6631 69.1387 34.1513 69.1332 33.5999Z" fill="#0A2767"/>
<path d="M19.8884 24.1776H35.5332V38.5184H19.8884V24.1776ZM65.9332 9.59999V3.03998C65.9708 1.39983 64.6726 0.0393017 63.0325 0H22.4341C20.7939 0.0393017 19.4957 1.39983 19.5333 3.03998V9.59999L43.5332 16L65.9332 9.59999Z" fill="#0364B8"/>
<path d="M19.5333 9.59998H35.5333V24H19.5333V9.59998Z" fill="#0078D4"/>
<path d="M51.5333 9.59998H35.5333V24L51.5333 38.3999H65.9333V24L51.5333 9.59998Z" fill="#28A8EA"/>
<path d="M35.5333 24H51.5332V38.4H35.5333V24Z" fill="#0078D4"/>
<path d="M35.5333 38.4H51.5332V52.7999H35.5333V38.4Z" fill="#0364B8"/>
<path d="M19.8885 38.5184H35.5333V51.5552H19.8885V38.5184Z" fill="#14447D"/>
<path d="M51.5333 38.4H65.9333V52.7999H51.5333V38.4Z" fill="#0078D4"/>
<path d="M68.4005 34.8528L68.3701 34.8688L44.5301 48.2768C44.4261 48.3407 44.3205 48.4015 44.2101 48.456C43.8051 48.6488 43.3654 48.7576 42.9173 48.776L41.6149 48.0144C41.5048 47.9591 41.398 47.8977 41.2949 47.8304L17.1349 34.0416H17.1237L16.3333 33.6V60.7424C16.3456 62.5532 17.8232 64.0115 19.6341 64H65.8837C65.9109 64 65.9349 63.9872 65.9636 63.9872C66.3461 63.9627 66.7232 63.884 67.0836 63.7536C67.2394 63.6876 67.3897 63.6095 67.5332 63.52C67.6404 63.4592 67.8244 63.3264 67.8244 63.3264C68.6441 62.7199 69.1292 61.762 69.1332 60.7424V33.6C69.1327 34.1191 68.8527 34.5978 68.4005 34.8528Z" fill="url(#paint0_linear_1_12)"/>
<path opacity="0.5" d="M67.8532 33.4928V35.1568L42.9253 52.3199L17.1173 34.0528C17.1173 34.0439 17.1101 34.0367 17.1013 34.0367L14.7333 32.6128V31.4127L15.7093 31.3967L17.7733 32.5807L17.8212 32.5967L17.9972 32.7088C17.9972 32.7088 42.2532 46.5487 42.3172 46.5807L43.2452 47.1247C43.3252 47.0927 43.4052 47.0607 43.5012 47.0287C43.5492 46.9967 67.5812 33.4767 67.5812 33.4767L67.8532 33.4928Z" fill="#0A2767"/>
<path d="M68.4004 34.8528L68.37 34.8704L44.53 48.2783C44.426 48.3423 44.3205 48.4031 44.21 48.4575C43.2842 48.9098 42.2015 48.9098 41.2756 48.4575C41.166 48.4032 41.0592 48.3434 40.9556 48.2783L17.1157 34.8704L17.0869 34.8528C16.6266 34.6032 16.3381 34.1235 16.3333 33.6V60.7424C16.3448 62.5529 17.8218 64.0114 19.6324 64C19.6324 64 19.6324 64 19.6325 64H65.8341C67.6446 64.0115 69.1217 62.5531 69.1333 60.7425C69.1333 60.7425 69.1333 60.7424 69.1333 60.7424V33.6C69.1327 34.1191 68.8527 34.5978 68.4004 34.8528Z" fill="#1490DF"/>
<path opacity="0.1" d="M44.8773 48.08L44.5205 48.28C44.4171 48.3458 44.3102 48.4062 44.2005 48.4608C43.8074 48.6537 43.3799 48.7668 42.9429 48.7935L52.0133 59.5199L67.8357 63.3327C68.2692 63.0053 68.6141 62.5746 68.8389 62.0799L44.8773 48.08Z" fill="black"/>
<path opacity="0.05" d="M46.4933 47.1711L44.5205 48.2799C44.4171 48.3458 44.3102 48.4061 44.2004 48.4607C43.8074 48.6537 43.3799 48.7668 42.9429 48.7935L47.1925 60.5103L67.8404 63.3279C68.6539 62.7172 69.1327 61.7595 69.1332 60.7423V60.3919L46.4933 47.1711Z" fill="black"/>
<path d="M19.6773 63.9999H65.8293C66.5394 64.0035 67.2321 63.7792 67.8052 63.3599L41.6133 48.0176C41.5032 47.9624 41.3964 47.9009 41.2933 47.8336L17.1333 34.0448H17.1221L16.3333 33.6V60.6496C16.3315 62.4982 17.8287 63.9982 19.6773 63.9999V63.9999Z" fill="#28A8EA"/>
<path opacity="0.1" d="M38.7333 15.7328V49.8608C38.7304 51.0573 38.0029 52.1329 36.8933 52.5808C36.5496 52.7285 36.1794 52.8047 35.8053 52.8048H16.3333V14.4H19.5333V12.8H35.8053C37.4217 12.8061 38.7298 14.1164 38.7333 15.7328Z" fill="black"/>
<path opacity="0.2" d="M37.1333 17.3328V51.4607C37.1373 51.8472 37.0554 52.2298 36.8933 52.5807C36.449 53.6759 35.3872 54.3945 34.2053 54.3999H16.3333V14.4H34.2053C34.6696 14.3953 35.1271 14.5111 35.5333 14.736C36.5141 15.2301 37.1329 16.2345 37.1333 17.3328Z" fill="black"/>
<path opacity="0.2" d="M37.1333 17.3328V48.2607C37.1255 49.8764 35.821 51.1859 34.2053 51.1999H16.3333V14.4H34.2053C34.6696 14.3953 35.1271 14.5111 35.5333 14.736C36.5141 15.2301 37.1329 16.2345 37.1333 17.3328Z" fill="black"/>
<path opacity="0.2" d="M35.5333 17.3328V48.2607C35.5316 49.8789 34.2234 51.192 32.6053 51.1999H16.3333V14.4H32.6053C34.2233 14.4008 35.5342 15.7132 35.5333 17.3312C35.5333 17.3317 35.5333 17.3322 35.5333 17.3328Z" fill="black"/>
<path d="M3.2661 14.4H32.6005C34.2202 14.4 35.5333 15.713 35.5333 17.3328V46.6671C35.5333 48.2869 34.2202 49.5999 32.6005 49.5999H3.2661C1.64635 49.5999 0.333313 48.2868 0.333313 46.6671V17.3328C0.333313 15.713 1.64639 14.4 3.2661 14.4Z" fill="url(#paint1_linear_1_12)"/>
<path d="M9.49973 26.7008C10.2226 25.1607 11.3893 23.8719 12.8501 23C14.4679 22.0738 16.3099 21.612 18.1733 21.6656C19.9004 21.6281 21.6046 22.0659 23.0997 22.9311C24.5055 23.7695 25.6377 24.9978 26.3589 26.4671C27.1444 28.0862 27.5358 29.868 27.5013 31.6671C27.5394 33.5474 27.1367 35.4105 26.3253 37.1071C25.5869 38.6289 24.4188 39.9011 22.9653 40.7663C21.4125 41.6581 19.6451 42.1074 17.855 42.0655C16.091 42.1081 14.3492 41.6653 12.8197 40.7855C11.4018 39.9461 10.2554 38.7163 9.51735 37.2431C8.72726 35.6475 8.33116 33.8857 8.36216 32.1055C8.32924 30.2412 8.71813 28.3936 9.49973 26.7008ZM13.0709 35.3887C13.4563 36.3623 14.1099 37.2067 14.9557 37.8239C15.8173 38.4261 16.8489 38.7367 17.8997 38.7103C19.0187 38.7546 20.1218 38.4333 21.0421 37.7951C21.8773 37.1799 22.5136 36.3332 22.8725 35.3599C23.2737 34.273 23.4716 33.1216 23.4565 31.9631C23.4689 30.7936 23.2828 29.6304 22.9061 28.5231C22.5734 27.5234 21.9575 26.6419 21.1333 25.9856C20.2361 25.3171 19.136 24.9781 18.0181 25.0256C16.9445 24.9978 15.8898 25.3108 15.0053 25.92C14.1451 26.5398 13.4792 27.3916 13.0853 28.3759C12.2115 30.6322 12.207 33.1325 13.0725 35.3919L13.0709 35.3887Z" fill="white"/>
<path d="M51.5333 9.59998H65.9333V24H51.5333V9.59998Z" fill="#50D9FF"/>
</g>
<defs>
<linearGradient id="paint0_linear_1_12" x1="42.7333" y1="33.6" x2="42.7333" y2="64" gradientUnits="userSpaceOnUse">
<stop stop-color="#35B8F1"/>
<stop offset="1" stop-color="#28A8EA"/>
</linearGradient>
<linearGradient id="paint1_linear_1_12" x1="6.44826" y1="12.1083" x2="29.4183" y2="51.8916" gradientUnits="userSpaceOnUse">
<stop stop-color="#1784D9"/>
<stop offset="0.5" stop-color="#107AD5"/>
<stop offset="1" stop-color="#0A63C9"/>
</linearGradient>
<clipPath id="clip0_1_12">
<rect width="68.8" height="64" fill="white" transform="translate(0.333313)"/>
</clipPath>
</defs>
</svg>
