<svg width="24" height="24" viewBox="0 0 24 24" fill="none" xmlns="http://www.w3.org/2000/svg">
  <path fill-rule="evenodd" clip-rule="evenodd" d="M9 12C10.6569 12 12 10.6569 12 9C12 7.34315 10.6569 6 9 6C7.34315 6 6 7.34315 6 9C6 10.6569 7.34315 12 9 12ZM9 14C6.79086 14 5 15.7909 5 18C5 18.5523 5.44772 19 6 19H12C12.5523 19 13 18.5523 13 18C13 15.7909 11.2091 14 9 14ZM16 12C17.6569 12 19 10.6569 19 9C19 7.34315 17.6569 6 16 6C14.3431 6 13 7.34315 13 9C13 10.6569 14.3431 12 16 12ZM16 14C14.3431 14 13 15.3431 13 17C13 17.5523 13.4477 18 14 18H18C18.5523 18 19 17.5523 19 17C19 15.3431 17.6569 14 16 14ZM14.2 15.5C14.5858 15.5 14.9668 15.7591 15.1261 16.1355C14.5376 16.4716 13.7489 16.65 13 16.65C12.2511 16.65 11.4624 16.4716 10.8739 16.1355C11.0332 15.7591 11.4142 15.5 11.8 15.5H14.2Z" fill="white"/>
</svg>