<svg width="64" height="64" viewBox="0 0 64 64" fill="none" xmlns="http://www.w3.org/2000/svg">
<g clip-path="url(#clip0_3_140)">
<path d="M31.9709 0.118131C14.4187 0.118131 0.144644 14.387 0.1384 31.9256C0.129756 37.9145 1.81625 43.7836 5.00292 48.8544L5.75999 50.0579L2.5449 61.7954L14.5884 58.6375L15.7513 59.3265C20.6356 62.2252 26.2358 63.7581 31.9469 63.7612H31.9589C49.4975 63.7612 63.7716 49.4907 63.7783 31.9511C63.7916 27.7706 62.9754 23.629 61.3772 19.766C59.7789 15.9031 57.4302 12.3956 54.4671 9.44652C51.5205 6.48133 48.0149 4.13007 44.1534 2.52884C40.2919 0.927619 36.1512 0.108237 31.9709 0.118131Z" fill="#5E5E5E"/>
<path fill-rule="evenodd" clip-rule="evenodd" d="M22.3906 15.9235C21.6736 14.3308 20.9192 14.2985 20.238 14.271L18.4044 14.2486C17.7665 14.2486 16.73 14.4879 15.8538 15.4453C14.9776 16.4027 12.5055 18.7166 12.5055 23.423C12.5055 28.1293 15.9334 32.677 16.4111 33.3159C16.8887 33.9549 23.0285 43.9207 32.7519 47.7549C40.832 50.9414 42.4762 50.3077 44.2308 50.1484C45.9853 49.9892 49.8903 47.8346 50.687 45.6008C51.4836 43.367 51.4841 41.4533 51.2453 41.0532C51.0064 40.653 50.3685 40.4152 49.4111 39.9365C48.4537 39.4578 43.7515 37.1439 42.8748 36.8245C41.998 36.505 41.3606 36.3463 40.7222 37.3037C40.0838 38.2611 38.2527 40.4147 37.6944 41.0532C37.1361 41.6916 36.5789 41.7717 35.6215 41.2935C34.6641 40.8154 31.5837 39.8049 27.929 36.5461C25.0854 34.0105 23.1659 30.8792 22.6071 29.9224C22.0483 28.9655 22.5478 28.4472 23.0275 27.9706C23.4568 27.5419 23.9839 26.8535 24.4631 26.2952C24.9423 25.7369 25.1 25.3378 25.4184 24.7004C25.7368 24.063 25.5781 23.5031 25.3388 23.0249C25.0994 22.5467 23.2408 17.8154 22.3906 15.9235Z" fill="white"/>
</g>
<defs>
<clipPath id="clip0_3_140">
<rect width="63.4797" height="64" fill="white" transform="translate(0.135254)"/>
</clipPath>
</defs>
</svg>
